<svg width="56" height="56" viewBox="0 0 56 56" fill="none" xmlns="http://www.w3.org/2000/svg">
<path fill-rule="evenodd" clip-rule="evenodd" d="M44.0684 50.8142C40.3491 50.8142 37.3228 47.7876 37.3228 44.0681C37.3228 40.3486 40.3492 37.322 44.0684 37.322C47.7875 37.322 50.8121 40.3486 50.8121 44.0681C50.8121 47.7876 47.7857 50.8142 44.0684 50.8142ZM44.0684 38.4175C40.9526 38.4175 38.4168 40.9518 38.4168 44.0695C38.4168 47.1855 40.951 49.7216 44.0684 49.7216C47.1842 49.7216 49.7181 47.1872 49.7181 44.0695C49.7181 40.9535 47.1839 38.4175 44.0684 38.4175Z" fill="#7A3DE2"/>
<path fill-rule="evenodd" clip-rule="evenodd" d="M42.3032 47.3346C42.1902 47.3346 42.0771 47.3 41.9823 47.2307C41.8128 47.1067 41.7289 46.8988 41.7654 46.6928L42.0644 45.0099L40.8338 43.8248C40.6824 43.6789 40.6277 43.4601 40.6934 43.2614C40.7572 43.0626 40.9304 42.9186 41.1382 42.8894L42.8301 42.6542L43.5776 41.1172C43.6688 40.9294 43.8602 40.809 44.0699 40.809C44.2795 40.809 44.471 40.9294 44.5621 41.1172L45.3096 42.6542L47.0015 42.8894C47.2094 42.9186 47.3807 43.0626 47.4464 43.2614C47.512 43.4601 47.4573 43.6789 47.306 43.8248L46.0754 45.0099L46.3744 46.6928C46.4108 46.8989 46.327 47.1085 46.1574 47.2307C45.9879 47.3547 45.7636 47.3693 45.5795 47.2708L44.0717 46.4667L42.5639 47.2708C42.4837 47.3146 42.3944 47.3346 42.3069 47.3346H42.3032ZM44.068 45.2998C44.1573 45.2998 44.2448 45.3217 44.3251 45.3636L45.0981 45.7757L44.9449 44.9132C44.9139 44.7346 44.9723 44.5504 45.1035 44.4246L45.7344 43.8174L44.8665 43.6971C44.686 43.6716 44.5292 43.5585 44.4508 43.3944L44.068 42.6068L43.6851 43.3944C43.6049 43.5585 43.4499 43.6716 43.2694 43.6971L42.4016 43.8174L43.0324 44.4246C43.1637 44.5504 43.2239 44.7346 43.1911 44.9132L43.0379 45.7757L43.8109 45.3636C43.8911 45.3199 43.9787 45.2998 44.068 45.2998Z" fill="#7A3DE2"/>
<path fill-rule="evenodd" clip-rule="evenodd" d="M27.9989 51.3332C23.9935 51.3332 20.0426 50.2994 16.5716 48.3466C16.433 48.2682 16.3346 48.1333 16.3036 47.9783C16.2726 47.8233 16.3109 47.6611 16.4075 47.5353C16.8687 46.9409 17.2005 46.2681 17.3975 45.5351C18.2051 42.5194 16.4093 39.4088 13.3956 38.6013C11.7019 38.1491 9.84776 38.5247 8.46606 39.5932C8.34026 39.6898 8.17983 39.7281 8.02303 39.6953C7.86807 39.6643 7.73315 39.5658 7.65476 39.4272C5.70033 35.9557 4.66663 32.0029 4.66663 27.999C4.66663 23.9951 5.69851 20.0421 7.65294 16.5707C7.73133 16.4322 7.86442 16.3337 8.02121 16.3027C8.17801 16.2717 8.33844 16.31 8.46424 16.4066C9.05857 16.8661 9.73131 17.1998 10.4643 17.3967C10.9456 17.5262 11.4396 17.5918 11.9337 17.5918C14.488 17.5918 16.7359 15.8651 17.3977 13.3946C17.8589 11.6734 17.498 9.87558 16.4059 8.4646C16.3093 8.33879 16.271 8.17652 16.3038 8.02154C16.3348 7.86656 16.4332 7.73163 16.5718 7.65323C20.0431 5.69866 23.9956 4.66669 27.9992 4.66669C32.0028 4.66669 35.9555 5.70048 39.4265 7.65323C39.5651 7.73163 39.6635 7.86473 39.6945 8.02154C39.7255 8.17652 39.6872 8.33879 39.5906 8.4646C39.1294 9.05897 38.7976 9.73177 38.6006 10.4648C38.2105 11.9252 38.4092 13.4513 39.1658 14.7605C39.9224 16.0696 41.1421 17.0068 42.6043 17.3987C44.298 17.8527 46.1522 17.4753 47.5339 16.4069C47.6597 16.3102 47.8219 16.2719 47.9769 16.3048C48.1319 16.3358 48.2668 16.4342 48.3452 16.5728C50.2996 20.0443 51.3333 23.9971 51.3333 28.001C51.3333 32.0068 50.2996 35.958 48.347 39.4293C48.2686 39.5679 48.1337 39.6663 47.9787 39.6973C47.8219 39.7301 47.6615 39.6918 47.5357 39.5934C46.9413 39.1321 46.2686 38.8003 45.5357 38.6033C45.0544 38.4739 44.5603 38.4082 44.0662 38.4082C41.5119 38.4082 39.264 40.1349 38.6022 42.6055C38.141 44.3267 38.502 46.1245 39.594 47.5354C39.6906 47.6612 39.7289 47.8235 39.6961 47.9785C39.6651 48.1335 39.5667 48.2684 39.4281 48.3468C35.9568 50.3014 32.0043 51.3334 28.0007 51.3334L27.9989 51.3332ZM17.6399 47.6829C20.8158 49.3567 24.3855 50.2392 27.9989 50.2392C31.6123 50.2392 35.1823 49.3567 38.3598 47.6811C37.348 46.0875 37.049 44.1676 37.543 42.3208C38.3325 39.3725 41.0143 37.3124 44.0646 37.3124C44.6535 37.3124 45.2442 37.3908 45.8167 37.544C46.4821 37.7226 47.1075 37.9961 47.6818 38.359C49.3554 35.1828 50.2379 31.6128 50.2379 27.9992C50.2379 24.3836 49.3555 20.8152 47.68 17.6356C46.1047 18.6293 44.1321 18.9374 42.3201 18.4524C40.5771 17.9857 39.1204 16.868 38.2179 15.3054C37.3155 13.7428 37.0766 11.9214 37.5434 10.1803C37.722 9.51483 37.9955 8.88946 38.3583 8.31511C35.1806 6.64134 31.6127 5.75883 27.9993 5.75883C24.3859 5.75883 20.8159 6.64129 17.6384 8.31693C18.6503 9.91051 18.9493 11.8304 18.4552 13.6772C17.6658 16.6255 14.9839 18.6856 11.9355 18.6856C11.3466 18.6856 10.7559 18.6072 10.1834 18.4541C9.51795 18.2754 8.89263 18.0019 8.31832 17.6391C6.64468 20.8152 5.76224 24.3852 5.76224 27.9989C5.76224 31.6145 6.64464 35.1828 8.32014 38.3624C9.89535 37.3687 11.8662 37.0588 13.68 37.5456C17.2789 38.5101 19.4213 42.2207 18.4565 45.8199C18.2779 46.4854 18.0044 47.1108 17.6416 47.6852L17.6399 47.6829Z" fill="#7A3DE2"/>
<path fill-rule="evenodd" clip-rule="evenodd" d="M44.072 18.6864C43.4831 18.6864 42.8943 18.608 42.32 18.4548C40.577 17.9881 39.1203 16.8704 38.2178 15.3078C37.3154 13.7452 37.0766 11.9238 37.5433 10.1828C38.3327 7.23267 41.0146 5.17438 44.0649 5.17438C44.6537 5.17438 45.2444 5.25278 45.8169 5.40593C47.5599 5.8727 49.0166 6.99037 49.919 8.55295C50.8215 10.1155 51.0603 11.937 50.5936 13.678C49.8042 16.6263 47.1223 18.6864 44.072 18.6864ZM44.0647 6.26627C41.5105 6.26627 39.2626 7.99293 38.6007 10.4635C38.2088 11.924 38.4093 13.4501 39.1659 14.7592C39.9225 16.0683 41.1422 17.0055 42.6044 17.3975C43.0857 17.5269 43.5797 17.5926 44.0738 17.5926C46.6299 17.5926 48.876 15.8659 49.5378 13.3953C49.9298 11.9349 49.7292 10.4088 48.9726 9.09966C48.2178 7.79053 46.9963 6.85336 45.5342 6.46137C45.0529 6.33192 44.5588 6.26627 44.0647 6.26627Z" fill="#7A3DE2"/>
<path fill-rule="evenodd" clip-rule="evenodd" d="M11.9333 50.826C11.3444 50.826 10.7555 50.7476 10.1812 50.5944C6.58413 49.6299 4.43999 45.9174 5.40471 42.3201C6.19414 39.3718 8.876 37.3117 11.9263 37.3117C12.5152 37.3117 13.104 37.3901 13.6783 37.5433C17.2754 38.5078 19.4196 42.2184 18.4548 45.8176C17.6654 48.7677 14.9836 50.826 11.9333 50.826ZM11.926 38.4058C9.3717 38.4058 7.1238 40.1325 6.46198 42.6031C5.65431 45.6188 7.45014 48.7294 10.4656 49.5369C10.9469 49.6663 11.441 49.732 11.9351 49.732C14.4911 49.732 16.7372 48.0053 17.399 45.5329C18.2067 42.5172 16.4109 39.4066 13.3954 38.5991C12.9141 38.4697 12.42 38.404 11.926 38.404V38.4058Z" fill="#7A3DE2"/>
<path fill-rule="evenodd" clip-rule="evenodd" d="M38.9998 34.5349H16.9978C16.6951 34.5349 16.4508 34.2887 16.4508 33.9879V20.251C16.4508 18.9218 17.5319 17.8406 18.861 17.8406H24.2704C24.4491 17.8406 24.6168 17.9281 24.7189 18.0758C24.821 18.2235 24.8447 18.4113 24.7827 18.579L24.6879 18.8343L27.151 21.2975L32.3979 19.3429L31.831 18.7759C31.6742 18.6191 31.6286 18.3839 31.7124 18.1797C31.7963 17.9755 31.9969 17.8424 32.2174 17.8424H37.1326C38.4617 17.8424 39.5446 18.9236 39.5446 20.2528V33.9897C39.5446 34.2924 39.3003 34.5367 38.9976 34.5367L38.9998 34.5349ZM17.5448 33.4409H38.4528V20.251C38.4528 19.5254 37.8621 18.9328 37.1346 18.9328H33.5394L33.7764 19.168C33.9077 19.2993 33.9642 19.4889 33.9241 19.6712C33.884 19.8536 33.7545 20.0031 33.5813 20.0669L27.2058 22.4426C27.0035 22.5156 26.7792 22.4682 26.6279 22.3168L23.667 19.3558C23.554 19.2427 23.4975 19.0877 23.5084 18.9328H18.863C18.1374 18.9328 17.5449 19.5235 17.5449 20.251L17.5448 33.4409Z" fill="#7A3DE2"/>
<path fill-rule="evenodd" clip-rule="evenodd" d="M36.7212 32.2551H19.2754C18.9727 32.2551 18.7284 32.0089 18.7284 31.7081V20.6644C18.7284 20.3618 18.9727 20.1174 19.2754 20.1174H22.3583C22.5789 20.1174 22.7795 20.2505 22.8633 20.4547C22.9472 20.659 22.9016 20.8942 22.7448 21.0509L22.0192 21.7766C21.7585 22.0373 21.7585 22.4622 22.0192 22.7247L23.248 23.9554C23.5051 24.2125 23.959 24.2125 24.2161 23.9554L26.6263 21.545C26.681 21.4903 26.7485 21.4466 26.8214 21.4192L30.2197 20.1539C30.2799 20.1302 30.3455 20.1192 30.4112 20.1192H36.7195C37.0221 20.1192 37.2664 20.3635 37.2664 20.6662V31.708C37.2664 32.0107 37.0221 32.255 36.7195 32.255L36.7212 32.2551ZM19.8224 31.1611H36.1742V21.2115H30.5114L27.3172 22.4021L24.9908 24.7287C24.6553 25.0642 24.2105 25.2483 23.7328 25.2483C23.257 25.2483 22.8103 25.0642 22.4749 24.7287L21.2442 23.498C20.6226 22.8762 20.5642 21.9008 21.0656 21.2116H19.8203V31.1611L19.8224 31.1611Z" fill="#7A3DE2"/>
<path fill-rule="evenodd" clip-rule="evenodd" d="M38.8428 38.1587H17.1545C15.8545 38.1587 14.7971 37.1012 14.7971 35.7994V33.987C14.7971 33.6843 15.0414 33.44 15.3441 33.44H40.6547C40.9574 33.44 41.2017 33.6861 41.2017 33.987V35.7994C41.2017 37.0994 40.1443 38.1569 38.8443 38.1569L38.8428 38.1587ZM15.891 34.5358V35.7994C15.891 36.4977 16.458 37.0629 17.1563 37.0629H38.8428C39.5392 37.0629 40.1062 36.4959 40.1062 35.7994V34.5358H15.8891H15.891Z" fill="#7A3DE2"/>
<path fill-rule="evenodd" clip-rule="evenodd" d="M42.3871 15.3875C41.5448 15.3875 40.8794 14.7256 40.8739 13.8796V9.9832C40.8812 9.13355 41.5448 8.47168 42.3853 8.47168C42.6497 8.47168 42.9122 8.54097 43.1401 8.67406L46.5093 10.6195C46.976 10.8876 47.2641 11.3908 47.2641 11.9287C47.2641 12.4683 46.9742 12.9698 46.5093 13.2378L43.1401 15.1833C42.9122 15.3146 42.6515 15.3857 42.3889 15.3857L42.3871 15.3875ZM42.3835 9.56741C42.1519 9.56741 41.9678 9.75339 41.966 9.99041V13.8759C41.9696 14.2423 42.3488 14.3791 42.5913 14.2387L45.9605 12.2932C46.0881 12.2185 46.1684 12.0799 46.1684 11.9304C46.1684 11.7809 46.0881 11.6423 45.9605 11.5675L42.5913 9.62207C42.5275 9.58561 42.4582 9.56741 42.3835 9.56741Z" fill="#7A3DE2"/>
<path fill-rule="evenodd" clip-rule="evenodd" d="M11.9295 18.6732C8.21028 18.6732 5.18579 15.6465 5.18579 11.9289C5.18579 8.20936 8.21224 5.18463 11.9295 5.18463C15.6488 5.18463 18.6733 8.21132 18.6733 11.9289C18.6733 15.6485 15.6468 18.6732 11.9295 18.6732ZM11.9295 6.27639C8.81376 6.27639 6.27793 8.81078 6.27793 11.9284C6.27793 15.0445 8.81213 17.5805 11.9295 17.5805C15.0453 17.5805 17.5812 15.0461 17.5812 11.9284C17.5812 8.81242 15.0451 6.27639 11.9295 6.27639Z" fill="#7A3DE2"/>
<path fill-rule="evenodd" clip-rule="evenodd" d="M11.9295 18.6723C10.0571 18.6723 8.31783 17.9229 7.03073 16.5628C6.83748 16.3586 6.83018 16.0431 7.0125 15.8298C8.24676 14.3931 10.039 13.5689 11.9295 13.5689C13.8201 13.5689 15.6122 14.393 16.8446 15.8298C17.0269 16.0431 17.0196 16.3586 16.8264 16.5628C15.5392 17.923 13.7999 18.6723 11.9276 18.6723H11.9295ZM8.19569 16.1707C9.22757 17.0824 10.5348 17.5783 11.9295 17.5783C13.3242 17.5783 14.6314 17.0824 15.6633 16.1707C14.6643 15.208 13.3297 14.6647 11.9295 14.6647C10.5293 14.6647 9.19476 15.208 8.19569 16.1707Z" fill="#7A3DE2"/>
<path fill-rule="evenodd" clip-rule="evenodd" d="M11.9296 14.6639C10.3343 14.6639 9.03442 13.3657 9.03442 11.7703C9.03442 10.1749 10.3325 8.87677 11.9296 8.87677C13.5249 8.87677 14.8229 10.1749 14.8229 11.7703C14.8229 13.3657 13.5249 14.6639 11.9296 14.6639ZM11.9296 9.96872C10.936 9.96872 10.1283 10.7765 10.1283 11.7683C10.1283 12.7602 10.936 13.5679 11.9296 13.5679C12.9214 13.5679 13.7291 12.7602 13.7291 11.7683C13.7291 10.7765 12.9214 9.96872 11.9296 9.96872Z" fill="#7A3DE2"/>
<path fill-rule="evenodd" clip-rule="evenodd" d="M9.49558 47.0529C9.3552 47.0529 9.21664 47 9.10908 46.8925C8.89577 46.6791 8.89577 46.3327 9.10908 46.1194L13.9789 41.2511C14.1922 41.0377 14.5386 41.0377 14.7519 41.2511C14.9652 41.4644 14.9652 41.8108 14.7519 42.0241L9.88207 46.8925C9.77451 47 9.63597 47.0529 9.49558 47.0529Z" fill="#7A3DE2"/>
<path fill-rule="evenodd" clip-rule="evenodd" d="M13.8095 45.6147C13.8095 46.5865 12.351 46.5865 12.351 45.6147C12.351 44.6429 13.8095 44.6429 13.8095 45.6147Z" fill="#7A3DE2"/>
<path fill-rule="evenodd" clip-rule="evenodd" d="M11.2223 42.8161C11.2223 43.7879 9.76379 43.7879 9.76379 42.8161C9.76379 41.8425 11.2223 41.8425 11.2223 42.8161Z" fill="#7A3DE2"/>
<path fill-rule="evenodd" clip-rule="evenodd" d="M23.7345 25.2508C23.2586 25.2508 22.8119 25.0667 22.4765 24.7312L21.2459 23.5005C20.5585 22.8131 20.5585 21.6936 21.2459 21.0062L23.667 18.5848C23.873 18.3788 24.2359 18.3788 24.44 18.5848L27.4008 21.5459C27.6141 21.7592 27.6141 22.1056 27.4008 22.3189L24.9906 24.7294C24.6551 25.0648 24.2103 25.249 23.7326 25.249L23.7345 25.2508ZM24.0535 19.7463L22.0189 21.7793C21.7581 22.04 21.7581 22.4648 22.0189 22.7274L23.2477 23.9581C23.5047 24.2152 23.9587 24.2152 24.2157 23.9581L26.2394 21.9342L24.0516 19.7463H24.0535Z" fill="#7A3DE2"/>
<path fill-rule="evenodd" clip-rule="evenodd" d="M27.0144 22.4743C26.8722 22.4743 26.7318 22.4178 26.6279 22.3138L23.6671 19.3528C23.5157 19.2014 23.4665 18.9754 23.5413 18.7748L25.9168 12.4007C25.9825 12.2256 26.1301 12.0962 26.3124 12.0579C26.4948 12.0196 26.6844 12.0743 26.8156 12.2056L33.7764 19.1669C33.9077 19.2982 33.9642 19.4878 33.9241 19.6701C33.884 19.8524 33.7545 20.0019 33.5813 20.0658L27.2077 22.4415C27.1457 22.4652 27.0819 22.4761 27.0163 22.4761L27.0144 22.4743ZM24.688 18.8277L27.1511 21.2909L32.3981 19.3364L26.6424 13.5802L24.688 18.8277Z" fill="#7A3DE2"/>
<path fill-rule="evenodd" clip-rule="evenodd" d="M31.3589 18.0699C31.213 18.0699 31.0744 18.0134 30.9724 17.9095L28.0717 15.0086C27.9678 14.9047 27.9095 14.7643 27.9113 14.6185C27.9131 14.4726 27.9715 14.3322 28.0772 14.2301C28.564 13.7579 29.2076 13.4971 29.8858 13.4971C30.5804 13.4971 31.2331 13.767 31.7235 14.2574C32.7208 15.2548 32.7336 16.8921 31.7509 17.904C31.6488 18.0098 31.5084 18.07 31.3625 18.07L31.3589 18.0699ZM29.3115 14.7023L31.275 16.666C31.4974 16.1208 31.388 15.4681 30.9486 15.0287C30.5238 14.6039 29.8511 14.478 29.3115 14.7005L29.3115 14.7023Z" fill="#7A3DE2"/>
<path fill-rule="evenodd" clip-rule="evenodd" d="M29.2115 27.782C29.1112 27.782 29.011 27.7546 28.9198 27.6981L24.3127 24.8045C24.1723 24.717 24.0793 24.5675 24.0593 24.4034C24.041 24.2375 24.0976 24.0734 24.2161 23.9549L26.0447 22.1243C26.2252 21.9438 26.506 21.911 26.7229 22.0477L31.33 24.9413C31.4704 25.0288 31.5634 25.1783 31.5816 25.3424C31.5998 25.5083 31.5433 25.6724 31.4248 25.7909L29.5944 27.6215C29.4886 27.7273 29.3482 27.782 29.2079 27.782H29.2115ZM25.4777 24.2448L29.1349 26.5403L30.1705 25.5047L26.5133 23.2091L25.4777 24.2448Z" fill="#7A3DE2"/>
<path fill-rule="evenodd" clip-rule="evenodd" d="M32.4712 14.1564C32.3308 14.1564 32.1904 14.1035 32.0847 13.9959C31.8714 13.7826 31.8714 13.4362 32.0847 13.2229L33.8604 11.447C34.0737 11.2337 34.4201 11.2337 34.6334 11.447C34.8467 11.6603 34.8467 12.0067 34.6334 12.22L32.8577 13.9959C32.7519 14.1035 32.6116 14.1564 32.4712 14.1564Z" fill="#7A3DE2"/>
<path fill-rule="evenodd" clip-rule="evenodd" d="M31.3282 13.0115C31.0256 13.0115 30.7812 12.7671 30.7812 12.4645V9.95197C30.7812 9.6493 31.0274 9.40497 31.3282 9.40497C31.629 9.40497 31.8752 9.64929 31.8752 9.95197V12.4645C31.8752 12.7671 31.629 13.0115 31.3282 13.0115Z" fill="#7A3DE2"/>
<path fill-rule="evenodd" clip-rule="evenodd" d="M36.1247 15.2988H33.6124C33.3097 15.2988 33.0654 15.0545 33.0654 14.7518C33.0654 14.4492 33.3116 14.2048 33.6124 14.2048H36.1247C36.4273 14.2048 36.6716 14.4492 36.6716 14.7518C36.6716 15.0545 36.4273 15.2988 36.1247 15.2988Z" fill="#7A3DE2"/>
<path fill-rule="evenodd" clip-rule="evenodd" d="M27.5649 28.6112H23.5649C23.2623 28.6112 23.0179 28.365 23.0179 28.0642C23.0179 27.7615 23.2622 27.5172 23.5649 27.5172H27.5649C27.8675 27.5172 28.1119 27.7615 28.1119 28.0642C28.1119 28.3668 27.8676 28.6112 27.5649 28.6112ZM21.6925 28.6112H20.9432C20.6406 28.6112 20.3962 28.365 20.3962 28.0642C20.3962 27.7615 20.6405 27.5172 20.9432 27.5172H21.6925C21.9952 27.5172 22.2395 27.7615 22.2395 28.0642C22.2395 28.3668 21.9952 28.6112 21.6925 28.6112Z" fill="#7A3DE2"/>
<path fill-rule="evenodd" clip-rule="evenodd" d="M27.5649 30.6316H26.8174C26.5148 30.6316 26.2704 30.3855 26.2704 30.0846C26.2704 29.7838 26.5147 29.5376 26.8174 29.5376H27.5649C27.8676 29.5376 28.1119 29.7837 28.1119 30.0846C28.1119 30.3854 27.8676 30.6316 27.5649 30.6316ZM24.945 30.6316H20.945C20.6424 30.6316 20.3981 30.3855 20.3981 30.0846C20.3981 29.7838 20.6424 29.5376 20.945 29.5376H24.945C25.2477 29.5376 25.492 29.7837 25.492 30.0846C25.492 30.3854 25.2477 30.6316 24.945 30.6316Z" fill="#7A3DE2"/>
</svg>
