<svg width="56" height="56" viewBox="0 0 56 56" fill="none" xmlns="http://www.w3.org/2000/svg">
<path d="M29.6256 19.1388C31.9922 19.1388 34.2234 20.2704 35.6633 22.1994C37.1032 24.1284 37.5882 26.6367 36.9754 28.985C36.3626 31.3332 34.7197 33.2543 32.5336 34.1833C30.3475 35.114 27.8644 34.946 25.8154 33.7295C23.7665 32.513 22.383 30.387 22.0748 27.977C21.7665 25.5671 22.5672 23.1478 24.2402 21.4273C25.6669 19.9597 27.6051 19.135 29.6256 19.1388ZM5.67426 33.1885H8.67432C8.93749 33.1866 9.18936 33.2947 9.37357 33.4878H9.37545C9.55027 33.6712 9.65929 33.9107 9.67997 34.1656L9.74388 34.8839H12.4131C12.9714 34.8839 13.4244 35.3473 13.4263 35.9208V36.2413L18.3813 36.2104V36.2085C18.9584 36.1969 19.528 36.3495 20.0261 36.6507L23.8006 38.8732H23.7988C23.9379 38.9543 24.0694 39.047 24.1973 39.1474C24.248 39.1841 24.2931 39.2247 24.3364 39.2652H32.8966C34.1786 39.2691 35.2331 40.306 35.2877 41.6229L43.2541 36.8959C44.382 36.2317 45.8181 36.6101 46.4967 37.7494C46.5192 37.7842 46.538 37.8209 46.5549 37.8595C47.1677 39.0297 46.7655 40.4875 45.647 41.1518C45.6357 41.1595 45.6245 41.1653 45.6113 41.1692L28.6202 51.247C28.4755 51.3319 28.3063 51.3551 28.1447 51.3126H28.1409L16.3681 48.2269C16.2854 48.2038 16.2008 48.1864 16.1143 48.1748C16.0278 48.1651 15.9395 48.1594 15.853 48.1613L13.4244 48.1883V48.5185C13.4225 48.7657 13.336 49.0032 13.1819 49.1905C13.165 49.2137 13.1462 49.233 13.1274 49.2523C12.9375 49.4473 12.68 49.5554 12.4131 49.5554H11.0446L11.0991 50.154V50.1559C11.1029 50.1849 11.1048 50.2139 11.1048 50.2428C11.1029 50.5093 10.9976 50.7642 10.8115 50.9496C10.6424 51.1195 10.4224 51.2238 10.1874 51.245C10.1405 51.2508 10.1104 51.2527 10.0953 51.2527H5.67421C5.40541 51.2527 5.14978 51.1427 4.9599 50.9496C4.9411 50.9303 4.92418 50.909 4.90914 50.8916V50.8897C4.75313 50.7024 4.66666 50.463 4.66666 50.2139V34.2255C4.66666 33.9513 4.7738 33.6867 4.96177 33.4917V33.4898C5.15163 33.2947 5.40727 33.1866 5.67421 33.1866L5.67426 33.1885ZM9.86041 36.2027L10.9281 48.244H12.1443L12.1424 36.1988L9.86041 36.2027ZM8.42804 34.5016H5.94682V49.9393H9.79839L8.42804 34.5016ZM9.82846 50.2774V50.2581C9.82846 50.2736 9.8341 50.2948 9.82846 50.2774ZM13.4244 37.5486V41.4472L13.4789 46.8808L15.8418 46.8537L15.8436 46.8557C15.9846 46.8518 16.1256 46.8595 16.2666 46.8731C16.4076 46.8924 16.5485 46.9194 16.6858 46.9561L28.2103 49.9742L44.9718 40.0358C44.9831 40.0281 44.9944 40.0203 45.0057 40.0145C45.5245 39.7017 45.7125 39.024 45.4305 38.4775L45.4117 38.4505H45.4136C45.2651 38.1879 45.0226 37.9986 44.7388 37.9195C44.453 37.8403 44.1485 37.8808 43.891 38.0315L34.3005 43.7182C34.2911 43.7259 34.2798 43.7317 34.2704 43.7394L34.2554 43.7471L34.2535 43.7491C34.2441 43.7549 34.2328 43.7626 34.2215 43.7664C33.8456 44.0271 33.4039 44.17 32.9508 44.1797H32.9076C32.8794 44.1816 32.8381 44.1855 32.7836 44.1874C32.7366 44.1874 32.682 44.1893 32.62 44.1893L30.6858 44.1797H21.7309C21.3757 44.1797 21.09 43.8862 21.09 43.5212C21.09 43.1582 21.3757 42.8628 21.7309 42.8628H32.8965C33.5111 42.8628 34.0074 42.353 34.0074 41.7216C34.0074 41.0921 33.5112 40.5804 32.8965 40.5804H21.7309C21.3757 40.5804 21.09 40.285 21.09 39.922C21.09 39.5589 21.3757 39.2635 21.7309 39.2635H21.8888L19.3869 37.7902C19.2365 37.6994 19.073 37.6299 18.9038 37.5816C18.7347 37.5353 18.558 37.514 18.3832 37.5179L13.4244 37.5486ZM46.4759 28.8979H41.7503C41.3969 28.8979 41.1093 28.6025 41.1093 28.2395V25.6887C41.1093 25.3256 41.3969 25.0302 41.7503 25.0302H46.4759V23.3947C46.474 23.1205 46.6395 22.8753 46.8876 22.7787C47.1357 22.6802 47.4177 22.7517 47.5944 22.9564L51.1396 26.4939V26.4958C51.2617 26.6155 51.3313 26.7816 51.3332 26.9554C51.3369 27.1291 51.2711 27.2971 51.1527 27.4226C49.9779 28.6295 48.756 29.817 47.5624 31.0065C47.3782 31.1899 47.1057 31.2421 46.8688 31.1397C46.6339 31.0374 46.4797 30.8018 46.4778 30.5372L46.4759 28.8979ZM42.3913 27.5829H47.1169C47.4703 27.5829 47.756 27.8764 47.7579 28.2394V28.9809L49.7767 26.965L47.7579 24.9472V25.6887C47.7579 26.0517 47.4703 26.3471 47.1169 26.3471H42.3913V27.5829ZM42.8706 16.0938L39.5303 19.5251C39.41 19.6487 39.2465 19.7182 39.0773 19.7182C38.9062 19.7182 38.7427 19.6487 38.6243 19.5251L36.8686 17.7216C36.6186 17.4648 36.6186 17.0477 36.8686 16.7909L40.2089 13.3558L39.081 12.1972V12.1991C38.8912 12.0041 38.8385 11.7086 38.9513 11.4595C39.0622 11.2085 39.3141 11.0579 39.581 11.0791L44.5154 11.0077C44.6846 11.0038 44.8481 11.0714 44.9684 11.1931C45.0906 11.3147 45.1583 11.4808 45.1601 11.6546C45.1583 13.3615 45.1131 15.0839 45.0906 16.7931V16.7911C45.0887 17.0557 44.9327 17.2932 44.694 17.3936C44.4552 17.494 44.1827 17.4361 44.0003 17.2507H43.9985L42.8706 16.0938ZM39.0773 18.131L42.4176 14.6958L42.4194 14.6978C42.5379 14.5723 42.7014 14.5027 42.8706 14.5027C43.0416 14.5027 43.2052 14.5723 43.3236 14.6978L43.8349 15.223L43.8744 12.3265L41.0566 12.369L41.5679 12.8942V12.8923C41.8179 13.1491 41.8179 13.5662 41.5679 13.823L38.2276 17.2582L39.0773 18.131ZM12.7781 25.0322H17.5019C17.673 25.0322 17.8365 25.1018 17.9568 25.2253C18.0771 25.3489 18.1429 25.5169 18.1429 25.6907V28.2395C18.1429 28.4153 18.0771 28.5832 17.9568 28.7068C17.8365 28.8304 17.673 28.8999 17.5019 28.898H12.7781V30.5374C12.7781 30.9004 12.4924 31.1939 12.139 31.1958C11.9548 31.1958 11.78 31.1166 11.6578 30.9737L8.11265 27.4363C7.99235 27.3146 7.9228 27.1486 7.92092 26.9748C7.91903 26.801 7.98483 26.633 8.10325 26.5094C9.27808 25.3026 10.498 24.115 11.6898 22.9236V22.9217C11.874 22.7383 12.1484 22.6861 12.3834 22.7885C12.6202 22.8927 12.7744 23.1302 12.7744 23.3948L12.7781 25.0322ZM16.8609 26.3492H12.139C11.7856 26.3472 11.4981 26.0537 11.4981 25.6907V24.9493L9.47737 26.9671L11.4981 28.983V28.2396C11.4981 27.8765 11.7857 27.5831 12.139 27.5831H16.8628L16.8609 26.3492ZM19.0433 13.3598L22.3836 16.795V16.793C22.5039 16.9166 22.5734 17.0846 22.5734 17.2584C22.5734 17.4322 22.5039 17.6002 22.3836 17.7238L20.6279 19.5273C20.3779 19.7841 19.9738 19.7841 19.7219 19.5273L16.3816 16.0921L15.2538 17.2526C15.0639 17.4457 14.7782 17.4979 14.5357 17.3839C14.2913 17.27 14.1428 17.0132 14.1616 16.7409L14.094 11.6741V11.6722C14.0921 11.4984 14.1579 11.3304 14.2763 11.2068C14.3947 11.0813 14.5564 11.0098 14.7275 11.0098C16.3891 11.0118 18.0659 11.0581 19.7296 11.0813H19.7278C19.8969 11.0832 20.0586 11.1547 20.177 11.2782C20.2954 11.4038 20.3612 11.5718 20.3594 11.7455C20.3575 11.9155 20.2898 12.0796 20.1714 12.2012H20.1733L19.0433 13.3598ZM21.0246 17.2584L17.6862 13.8233C17.5659 13.6997 17.4982 13.5336 17.4982 13.3579C17.4982 13.1841 17.5659 13.0161 17.6862 12.8945L18.1974 12.3692L15.3778 12.3268L15.4173 15.2232L15.9286 14.698C16.0489 14.5744 16.2124 14.503 16.3816 14.503C16.5527 14.503 16.7162 14.5744 16.8365 14.698L20.1805 18.1331L21.0246 17.2584ZM31.5097 9.66213V14.5146V14.5127C31.5097 14.6884 31.442 14.8545 31.3217 14.978C31.2033 15.1016 31.0397 15.1711 30.8687 15.1711H28.3875C28.2164 15.1711 28.0529 15.1016 27.9326 14.978C27.8123 14.8545 27.7446 14.6865 27.7446 14.5108V9.65827H26.1506C25.8837 9.65827 25.6468 9.48835 25.5509 9.23346C25.457 8.97858 25.5265 8.68891 25.7258 8.5074L29.1694 4.86561C29.2878 4.7401 29.4495 4.66866 29.6187 4.66673C29.7878 4.6648 29.9514 4.73238 30.0717 4.85403C31.2465 6.06087 32.4026 7.31408 33.5605 8.53828V8.54021C33.7409 8.72751 33.7935 9.00943 33.6939 9.25273C33.5943 9.4941 33.3612 9.65243 33.1055 9.65243V9.65436L31.5097 9.66213ZM30.2277 13.8523V8.99984C30.2277 8.82605 30.2935 8.65806 30.4138 8.53447C30.5341 8.41089 30.6976 8.34138 30.8668 8.34138H31.5905L29.6262 6.26754L27.6619 8.34138H28.3837C28.5529 8.34138 28.7164 8.41089 28.8367 8.53447C28.957 8.65806 29.0247 8.82605 29.0247 8.99984V13.8523H30.2277ZM29.6262 15.8701C32.9815 15.8701 36.1451 17.4748 38.1884 20.2109C40.2297 22.9451 40.9177 26.5022 40.0493 29.8309C39.179 33.1618 36.8519 35.8864 33.7522 37.2053C30.6506 38.5241 27.1297 38.2866 24.2237 36.5623C21.3176 34.8379 19.3572 31.8237 18.9193 28.4059C18.4813 24.9881 19.6167 21.5551 21.9889 19.1181C24.0115 17.0346 26.7596 15.8663 29.6262 15.8701ZM36.3554 20.0468C34.2633 17.8957 31.3157 16.8665 28.3798 17.2624C25.4437 17.6582 22.8555 19.4327 21.3739 22.0666C19.8927 24.7004 19.6878 27.8922 20.8194 30.7019C21.9529 33.5134 24.2931 35.622 27.1521 36.4099C30.0131 37.1978 33.0657 36.574 35.4155 34.7222C37.7651 32.8724 39.1411 30.003 39.1411 26.9618C39.1449 24.3686 38.1431 21.8793 36.3554 20.0468ZM30.2671 31.2813C30.2709 31.4589 30.207 31.6308 30.0848 31.7582C29.9645 31.8857 29.7991 31.9571 29.6261 31.9571C29.4532 31.9571 29.2878 31.8857 29.1675 31.7582C29.0453 31.6308 28.9814 31.4589 28.9852 31.2813V30.6267C28.0866 30.3371 27.4757 29.4836 27.4757 28.5162C27.4757 28.1512 27.7633 27.8578 28.1167 27.8578C28.4701 27.8578 28.7577 28.1513 28.7577 28.5162C28.7577 29.0086 29.1468 29.4083 29.6261 29.4102C29.9776 29.4102 30.2934 29.192 30.4288 28.858C30.5622 28.5239 30.4889 28.1397 30.2408 27.8847C30.0773 27.7168 29.8573 27.6241 29.6262 27.6241C28.5322 27.6241 27.613 26.7803 27.4908 25.6622C27.3667 24.5442 28.081 23.5111 29.1487 23.262V22.6595C29.1431 22.4819 29.2089 22.31 29.3292 22.1826C29.4495 22.0551 29.6149 21.9837 29.7878 21.9837C29.9607 21.9837 30.1262 22.0551 30.2465 22.1826C30.3668 22.31 30.4326 22.4819 30.4269 22.6595V23.3663V23.3643C31.2408 23.7022 31.7747 24.5113 31.7766 25.4131C31.7766 25.778 31.489 26.0715 31.1356 26.0715C30.7822 26.0715 30.4946 25.778 30.4946 25.4131C30.4946 25.1775 30.4044 24.9496 30.2409 24.7836C30.0773 24.6156 29.8574 24.521 29.6262 24.521C29.3931 24.5152 29.1657 24.6079 28.9984 24.7759C28.8311 24.9438 28.7371 25.1736 28.7371 25.415C28.7371 25.6545 28.8311 25.8842 28.9984 26.0522C29.1657 26.2202 29.3931 26.3129 29.6262 26.3071C30.6882 26.3071 31.5905 27.1046 31.7503 28.184C31.9101 29.2634 31.2804 30.3003 30.2672 30.6248L30.2671 31.2813ZM34.1056 22.3602C31.9683 20.1628 28.6169 19.823 26.1035 21.5473C23.5884 23.2717 22.6091 26.5815 23.767 29.4525C24.923 32.3219 27.893 33.9536 30.8571 33.3473C33.8234 32.7409 35.9604 30.0685 35.9604 26.9616C35.9604 25.2353 35.2936 23.5806 34.1056 22.3602Z" fill="#7A3DE2"/>
</svg>
