<svg width="56" height="56" viewBox="0 0 56 56" fill="none" xmlns="http://www.w3.org/2000/svg">
<path d="M12.9462 24.5023C11.2857 24.5023 9.93542 26.072 9.93542 28.0023C9.93542 29.9325 11.2857 31.5023 12.9462 31.5023C14.6066 31.5023 15.9569 29.9325 15.9569 28.0023C15.9569 26.072 14.6066 24.5023 12.9462 24.5023ZM12.9462 29.7523C12.116 29.7523 11.4408 28.9674 11.4408 28.0023C11.4408 27.0371 12.116 26.2523 12.9462 26.2523C13.7764 26.2523 14.4516 27.0371 14.4516 28.0023C14.4516 28.9674 13.7764 29.7523 12.9462 29.7523Z" fill="#7A3DE2"/>
<path d="M36.2795 10.5C29.062 10.5 22.9803 16.3476 21.56 24.5H18.9677V23.625C18.9677 20.2475 16.6043 17.5 13.6989 17.5C11.2639 17.5 9.19931 19.3918 8.60469 22.078C6.29394 22.7692 4.66663 25.1694 4.66663 28C4.66663 30.8306 6.29394 33.2308 8.60469 33.922C9.19931 36.6083 11.2639 38.5 13.6989 38.5C16.6043 38.5 18.9677 35.7525 18.9677 32.375V31.5H21.56C22.9803 39.6524 29.062 45.5 36.2795 45.5C44.5802 45.5 51.3333 37.6495 51.3333 28C51.3333 18.3505 44.5802 10.5 36.2795 10.5ZM17.4623 29.75V32.375C17.4623 34.7874 15.774 36.75 13.6989 36.75C11.8322 36.75 10.2704 35.1934 9.98512 33.0479L9.90082 32.4144L9.35587 32.3164C7.51103 31.9856 6.172 30.17 6.172 28C6.172 25.83 7.51103 24.0144 9.35663 23.6827L9.90157 23.5848L9.98587 22.9513C10.2704 20.8066 11.8322 19.25 13.6989 19.25C15.774 19.25 17.4623 21.2126 17.4623 23.625V26.25H35.5268V29.75H17.4623ZM36.2795 43.75C29.8877 43.75 24.4841 38.6549 23.0954 31.5H35.5268V35H37.0322V31.5V28.875H37.4086C39.6915 28.875 41.5483 31.0336 41.5483 33.6875C41.5483 36.3414 39.6915 38.5 37.4086 38.5H35.1505C32.8676 38.5 31.0107 36.3414 31.0107 33.6875H29.5053C29.5053 37.3065 32.0374 40.25 35.1505 40.25H35.5268V42H37.0322V40.25H37.4086C40.5217 40.25 43.0537 37.3065 43.0537 33.6875C43.0537 30.0685 40.5217 27.125 37.4086 27.125H37.0322V24.5V21H35.5268V24.5H31.4729C31.1755 23.8254 31.0107 23.079 31.0107 22.3125C31.0107 19.6586 32.8676 17.5 35.1505 17.5H37.4086C39.6915 17.5 41.5483 19.6586 41.5483 22.3125H43.0537C43.0537 18.6935 40.5217 15.75 37.4086 15.75H37.0322V14H35.5268V15.75H35.1505C32.0374 15.75 29.5053 18.6935 29.5053 22.3125C29.5053 23.0641 29.628 23.8 29.841 24.5H23.0954C24.4841 17.3451 29.8877 12.25 36.2795 12.25C43.75 12.25 49.8279 19.3156 49.8279 28C49.8279 36.6844 43.75 43.75 36.2795 43.75Z" fill="#7A3DE2"/>
</svg>
