<svg width="56" height="56" viewBox="0 0 56 56" fill="none" xmlns="http://www.w3.org/2000/svg">
<path d="M51.3334 4.66669H4.66675V51.3334H51.3334V4.66669Z" fill="white" stroke="white" stroke-width="0.1" stroke-miterlimit="10"/>
<path d="M28 4.66669V51.3334" stroke="white" stroke-width="0.1" stroke-miterlimit="10"/>
<path d="M51.3334 28H4.66675" stroke="white" stroke-width="0.1" stroke-miterlimit="10"/>
<path d="M4.66675 4.66669L51.3334 51.3334" stroke="white" stroke-width="0.1" stroke-miterlimit="10"/>
<path d="M45.1111 10.8899H10.8889V45.1121H45.1111V10.8899Z" stroke="white" stroke-width="0.1" stroke-miterlimit="10"/>
<path d="M51.3334 4.66669L4.66675 51.3334" stroke="white" stroke-width="0.1" stroke-miterlimit="10"/>
<path d="M4.66675 28L28.0001 4.66669" stroke="white" stroke-width="0.1" stroke-miterlimit="10"/>
<path d="M28 4.66669L51.3333 28" stroke="white" stroke-width="0.1" stroke-miterlimit="10"/>
<path d="M51.3333 28L28 51.3333" stroke="white" stroke-width="0.1" stroke-miterlimit="10"/>
<path d="M28.0001 51.3333L4.66675 28" stroke="white" stroke-width="0.1" stroke-miterlimit="10"/>
<path d="M28.0001 44.3313C37.0207 44.3313 44.3334 37.0187 44.3334 27.998C44.3334 18.9774 37.0207 11.6647 28.0001 11.6647C18.9794 11.6647 11.6667 18.9774 11.6667 27.998C11.6667 37.0187 18.9794 44.3313 28.0001 44.3313Z" stroke="white" stroke-width="0.1" stroke-miterlimit="10"/>
<path d="M29.5557 23.3313C25.6668 23.3313 22.5557 26.4424 22.5557 30.3313C22.5557 34.2202 25.6668 37.3313 29.5557 37.3313C33.4446 37.3313 36.5557 34.2202 36.5557 30.3313C36.5557 26.4424 33.4446 23.3313 29.5557 23.3313ZM29.5557 35.7757C26.5223 35.7757 24.1112 33.3646 24.1112 30.3313C24.1112 27.298 26.5223 24.8869 29.5557 24.8869C32.589 24.8869 35.0001 27.298 35.0001 30.3313C35.0001 33.3646 32.589 35.7757 29.5557 35.7757Z" fill="#7A3DE2"/>
<path d="M38.1114 21.3113L42.0002 17.4224L45.8114 21.3113L46.978 20.1447L43.0891 16.3336L46.978 12.5224L45.8114 11.3558L42.0002 15.2447L38.1891 11.3558L37.0225 12.4447L40.9114 16.3336L37.0225 20.1447L38.1114 21.3113Z" fill="#7A3DE2"/>
<path d="M48.2223 41.2243C48.2223 41.6909 47.9112 42.002 47.4445 42.002H10.1112C9.64453 42.002 9.33342 41.6909 9.33342 41.2243V19.4465C9.33342 18.9798 9.64453 18.6687 10.1112 18.6687H31.3445C31.2667 18.1243 31.189 17.6576 31.1112 17.1132H10.1112C8.78897 17.1132 7.77786 18.1243 7.77786 19.4465V21.7798H7.00008C5.67786 21.7798 4.66675 22.7909 4.66675 24.1132V45.8909C4.66675 47.2132 5.67786 48.2243 7.00008 48.2243H44.3334C45.6556 48.2243 46.6667 47.2132 46.6667 45.8909V43.5576H47.4445C48.7668 43.5576 49.7779 42.5465 49.7779 41.2243V23.9576C49.3112 24.4243 48.7668 24.8909 48.2223 25.2798V41.2243ZM45.1112 45.8909C45.1112 46.3576 44.8001 46.6687 44.3334 46.6687H7.00008C6.53341 46.6687 6.2223 46.3576 6.2223 45.8909V24.1132C6.2223 23.6465 6.53341 23.3354 7.00008 23.3354H7.77786V41.2243C7.77786 42.5465 8.78897 43.5576 10.1112 43.5576H45.1112V45.8909Z" fill="#7A3DE2"/>
<path d="M16.3334 21.0811C16.3334 23.6477 14.2334 25.7477 11.6667 25.7477H10.8889V35.0811H11.6667C14.2334 35.0811 16.3334 37.1811 16.3334 39.7477V40.5255H42V39.7477C42 37.1811 44.1 35.0811 46.6667 35.0811H47.4445V25.7477C46.5889 26.2922 45.6556 26.6033 44.6445 26.9144C45.0334 27.07 45.4222 27.1477 45.8889 27.2255V33.5255C43.0889 33.9144 40.8334 36.0922 40.5222 38.8922H17.8111C17.4222 36.0922 15.2445 33.8366 12.4445 33.5255V27.2255C15.2445 26.8366 17.5 24.6588 17.8111 21.8588H32.5889C32.2778 21.3922 32.0445 20.8477 31.8111 20.3033H16.3334V21.0811Z" fill="#7A3DE2"/>
<path d="M42.0001 25.6677C47.1334 25.6677 51.3334 21.4677 51.3334 16.3344C51.3334 11.201 47.1334 7.00104 42.0001 7.00104C36.8667 7.00104 32.6667 11.201 32.6667 16.3344C32.6667 21.4677 36.8667 25.6677 42.0001 25.6677ZM42.0001 8.55659C46.2779 8.55659 49.7779 12.0566 49.7779 16.3344C49.7779 20.6121 46.2779 24.1121 42.0001 24.1121C37.7223 24.1121 34.2223 20.6121 34.2223 16.3344C34.2223 12.0566 37.7223 8.55659 42.0001 8.55659Z" fill="#7A3DE2"/>
</svg>
