<svg width="56" height="56" viewBox="0 0 56 56" fill="none" xmlns="http://www.w3.org/2000/svg">
<path fill-rule="evenodd" clip-rule="evenodd" d="M16.7236 9.98405C20.4472 9.98405 23.4651 13.0017 23.4651 16.7253C23.4651 20.4489 20.4474 23.4666 16.7236 23.4666C12.9999 23.4666 9.98203 20.449 9.98203 16.7253C9.98203 13.0018 12.9998 9.98405 16.7236 9.98405ZM30.7102 30.7782C30.7102 31.2115 30.3592 31.5625 29.9258 31.5625C29.4925 31.5625 29.1415 31.2115 29.1415 30.7782V29.4233C29.1415 27.9919 30.3023 26.8311 31.7337 26.8311H40.5284C41.0931 26.8311 41.5519 26.3723 41.5519 25.8076V24.4527C41.5519 24.0194 41.9029 23.6684 42.3363 23.6684C42.7696 23.6684 43.1206 24.0194 43.1206 24.4527V25.8076C43.1206 27.2389 41.9598 28.3997 40.5284 28.3997H31.7337C31.169 28.3997 30.7102 28.8585 30.7102 29.4233V30.7782ZM16.8275 33.7369C16.3941 33.7369 16.0431 33.386 16.0431 32.9526C16.0431 32.5193 16.3941 32.1683 16.8275 32.1683H19.7883C20.2217 32.1683 20.5727 32.5193 20.5727 32.9526C20.5727 33.386 20.2217 33.7369 19.7883 33.7369H16.8275ZM22.7493 33.7369C22.316 33.7369 21.965 33.386 21.965 32.9526C21.965 32.5193 22.316 32.1683 22.7493 32.1683H25.7102C26.1435 32.1683 26.4945 32.5193 26.4945 32.9526C26.4945 33.386 26.1435 33.7369 25.7102 33.7369H22.7493ZM28.6711 33.7369C28.2378 33.7369 27.8868 33.386 27.8868 32.9526C27.8868 32.5193 28.2378 32.1683 28.6711 32.1683H31.632C32.0653 32.1683 32.4163 32.5193 32.4163 32.9526C32.4163 33.386 32.0653 33.7369 31.632 33.7369H28.6711ZM34.595 33.7369C34.1616 33.7369 33.8106 33.386 33.8106 32.9526C33.8106 32.5193 34.1616 32.1683 34.595 32.1683H37.5558C37.9892 32.1683 38.3402 32.5193 38.3402 32.9526C38.3402 33.386 37.9892 33.7369 37.5558 33.7369H34.595ZM40.5168 33.7369C40.0834 33.7369 39.7324 33.386 39.7324 32.9526C39.7324 32.5193 40.0834 32.1683 40.5168 32.1683H43.4776C43.911 32.1683 44.262 32.5193 44.262 32.9526C44.262 33.386 43.911 33.7369 43.4776 33.7369H40.5168ZM39.8815 16.5901H44.7914C45.2248 16.5901 45.5757 16.941 45.5757 17.3744V22.2782C45.5757 22.7116 45.2248 23.0626 44.7914 23.0626H39.8815C39.4481 23.0626 39.0971 22.7116 39.0971 22.2782V17.3744C39.0971 16.941 39.4481 16.5901 39.8815 16.5901ZM44.0071 18.1587H40.6659V21.4939H44.0071V18.1587ZM24.038 11.0725L24.9262 10.1843C24.438 9.57254 23.8732 9.00985 23.2634 8.52159L22.2987 9.48631C22.034 9.75297 21.6241 9.78826 21.3222 9.59219C20.4594 9.03727 19.5182 8.64514 18.5202 8.42945C18.1535 8.35102 17.9005 8.02553 17.9025 7.66281V6.29809C17.124 6.21181 16.3318 6.21181 15.5514 6.29809V7.66477C15.5514 8.053 15.2691 8.37459 14.9004 8.43733C13.9709 8.61969 12.9278 9.07653 12.1278 9.58832C11.8121 9.79028 11.4062 9.73734 11.1513 9.48244H11.1493L10.1846 8.51773C9.57477 9.00596 9.00804 9.57264 8.52178 10.1785L9.48848 11.1471C9.76693 11.4256 9.79242 11.8589 9.56692 12.1667C9.29828 12.5883 9.07082 13.0275 8.88453 13.4785C8.69041 13.9471 8.53942 14.4314 8.43158 14.9275C8.35314 15.2941 8.02764 15.5471 7.66491 15.5451H6.30013C6.21385 16.3236 6.21385 17.1177 6.30013 17.8941H7.66491C8.05316 17.8941 8.37475 18.1765 8.4375 18.5451C8.6179 19.4667 9.08063 20.5177 9.59245 21.3157C9.8003 21.6412 9.73951 22.0628 9.46303 22.3157L8.51987 23.2588C9.00616 23.8666 9.57482 24.4333 10.1846 24.9216L11.1494 23.9568C11.4278 23.6784 11.8612 23.6529 12.169 23.8784C12.4984 24.1039 13.1357 24.4176 13.4749 24.5569C13.9397 24.749 14.4279 24.902 14.9318 25.0098C15.2985 25.0882 15.5515 25.4137 15.5495 25.7764V27.1431C16.328 27.2294 17.1201 27.2294 17.9006 27.1431V25.7784C17.9006 25.3902 18.1829 25.0686 18.5516 25.0058C19.4732 24.8254 20.5242 24.3627 21.3222 23.8509C21.6379 23.649 22.0438 23.7019 22.2987 23.9568V23.9549L23.2654 24.9235C23.8713 24.4372 24.438 23.8705 24.9263 23.2607L23.9615 22.296C23.6831 22.0176 23.6576 21.5843 23.8831 21.2765C24.1498 20.8568 24.3772 20.4196 24.5616 19.9706C24.7537 19.5059 24.9067 19.0176 25.0145 18.5137C25.093 18.1471 25.4185 17.8941 25.7812 17.8961H27.1479C27.2342 17.1176 27.2342 16.3255 27.1479 15.5471H25.7812C25.3929 15.5471 25.0713 15.2647 25.0086 14.8961C24.8282 13.9726 24.3517 12.8961 23.8576 12.1236C23.6556 11.8079 23.7085 11.402 23.9635 11.1471L23.9615 11.1451L24.0399 11.0667L24.038 11.0725ZM26.491 10.8392C26.8008 10.5294 26.8302 10.1118 26.5733 9.77059C26.1733 9.20589 25.7302 8.68039 25.2498 8.19806C24.7576 7.70591 24.2184 7.25297 23.6399 6.84709C23.3144 6.61768 22.8713 6.67258 22.6105 6.96081L21.6222 7.94907C20.9398 7.56672 20.2163 7.26671 19.4672 7.05297V5.61963C19.4672 5.2216 19.1711 4.8922 18.7868 4.84316C18.1024 4.72551 17.4122 4.66669 16.724 4.66669C16.024 4.66669 15.3239 4.72747 14.6298 4.84904C14.2494 4.9157 13.9807 5.24708 13.9807 5.6216V7.0569C13.2356 7.26867 12.5062 7.5706 11.8277 7.94903L10.8139 6.93533C10.5277 6.64905 10.0786 6.63141 9.77078 6.8765C9.20606 7.2765 8.68054 7.71964 8.19819 8.20001C7.7119 8.68629 7.25894 9.22747 6.84717 9.81371C6.62755 10.1294 6.67265 10.551 6.9354 10.8137L6.93344 10.8157L7.94719 11.8313C7.56482 12.5137 7.26676 13.2372 7.05306 13.9843H5.61967C5.22162 13.9843 4.89221 14.2804 4.84316 14.6647C4.72551 15.347 4.66669 16.0392 4.66669 16.7274C4.66669 17.4274 4.72747 18.1274 4.84905 18.8215C4.91571 19.2019 5.2471 19.4706 5.62164 19.4706H7.05503C7.26876 20.2196 7.56876 20.9412 7.95116 21.6255L6.93546 22.6411C6.6531 22.9235 6.63349 23.3686 6.87468 23.6745C7.27861 24.247 7.72372 24.7745 8.2002 25.2529C8.44726 25.4999 8.70609 25.7372 8.97475 25.9627V39.3374C8.97475 40.5472 9.97087 41.5413 11.1768 41.5413H24.2382C24.0107 43.0138 23.5107 44.3785 22.6382 45.5687H19.442C17.4713 45.5687 15.8576 47.1844 15.8576 49.151V50.549C15.8576 50.9824 16.2085 51.3334 16.6419 51.3334H43.6643C44.0976 51.3334 44.4486 50.9824 44.4486 50.549V49.151C44.4486 47.1804 42.8329 45.5687 40.8662 45.5687H37.67C36.7974 44.3765 36.2974 43.0138 36.0699 41.5413H49.1294C50.3432 41.5413 51.3334 40.551 51.3334 39.3374V13.0433C51.3334 11.8355 50.3411 10.8394 49.1294 10.8394L26.491 10.8392ZM10.5417 26.692V39.3354C10.5417 39.6844 10.824 39.9706 11.175 39.9706H49.129C49.4761 39.9706 49.7643 39.6824 49.7643 39.3354V13.0433C49.7643 12.6904 49.478 12.408 49.129 12.408H25.7986L26.179 13.3217H48.0662C48.4996 13.3217 48.8505 13.6727 48.8505 14.1061V36.7373C48.8505 37.1707 48.4996 37.5216 48.0662 37.5216H12.2396C11.8063 37.5216 11.4553 37.1707 11.4553 36.7373V25.8745L10.8122 26.5176C10.7337 26.596 10.6416 26.6548 10.5416 26.694L10.5417 26.692ZM16.724 11.553C13.8671 11.553 11.5512 13.8687 11.5512 16.7257C11.5512 19.5825 13.8669 21.8983 16.724 21.8983C19.581 21.8983 21.8969 19.5827 21.8969 16.7257C21.8969 13.8688 19.5811 11.553 16.724 11.553ZM28.642 14.8902C28.8537 16.2804 28.8165 17.4059 28.6047 18.7882C28.5537 19.1725 28.2243 19.4686 27.8282 19.4686H26.3928C26.1811 20.2137 25.8791 20.9431 25.5007 21.6216L26.5144 22.6353C26.7791 22.9 26.8242 23.3235 26.6007 23.6392C26.1948 24.2196 25.7419 24.7568 25.2497 25.249C24.7791 25.7196 24.2594 26.1568 23.6967 26.5568C23.3888 26.8196 22.926 26.8058 22.6339 26.5137L21.6201 25.498C20.9378 25.8804 20.2142 26.1804 19.4671 26.3921V27.8254C19.4671 28.2 19.1985 28.5313 18.8181 28.598C18.1239 28.7196 17.4239 28.7804 16.7239 28.7804C16.0356 28.7804 15.3434 28.7215 14.661 28.6039C14.2767 28.5529 13.9806 28.2235 13.9806 27.8274V26.3921C13.659 26.3 13.3394 26.1921 13.0237 26.0666V35.9507H47.2816V14.89L28.642 14.8902ZM37.2855 47.135H40.866C41.9778 47.135 42.8798 48.0409 42.8798 49.1487V49.7624L17.424 49.7644V49.1506C17.424 48.0369 18.3319 47.1369 19.4398 47.1369H37.2855L37.2855 47.135ZM34.4854 41.5392C34.6815 42.9725 35.1012 44.3313 35.807 45.5666H24.499C25.2049 44.3313 25.6245 42.9724 25.8206 41.5392H34.4854Z" fill="#7A3DE2"/>
</svg>
