<svg width="56" height="56" viewBox="0 0 56 56" fill="none" xmlns="http://www.w3.org/2000/svg">
<path d="M48.9999 16.3335H43.5554C43.2158 16.3343 42.8804 16.4091 42.5726 16.5526C42.2647 16.6961 41.9918 16.905 41.7729 17.1646C41.5539 17.4243 41.3942 17.7285 41.3047 18.0562C41.2152 18.3838 41.1982 18.727 41.2548 19.0619C41.3549 19.5695 41.6164 20.0311 42.0003 20.3779C42.3842 20.7247 42.87 20.9381 43.3851 20.9862L38.8888 25.4786V11.6669C38.8888 10.8417 38.561 10.0504 37.9776 9.46698C37.3941 8.88354 36.6028 8.55577 35.7777 8.55577H30.968C30.8077 8.10239 30.5112 7.70962 30.1192 7.43117C29.7271 7.15273 29.2586 7.00221 28.7777 7.00022H26.2414C25.7409 6.28 25.0735 5.69161 24.2962 5.28527C23.5189 4.87892 22.6549 4.66669 21.7778 4.66669C20.9007 4.66669 20.0366 4.87892 19.2594 5.28527C18.4821 5.69161 17.8147 6.28 17.3141 7.00022H14.7778C14.2969 7.00221 13.8284 7.15273 13.4364 7.43117C13.0443 7.70962 12.7479 8.10239 12.5876 8.55577H7.77784C6.95273 8.55577 6.16141 8.88354 5.57797 9.46698C4.99452 10.0504 4.66675 10.8417 4.66675 11.6669L4.66675 45.1112C4.66675 45.9363 4.99452 46.7276 5.57797 47.311C6.16141 47.8945 6.95273 48.2223 7.77784 48.2223H23.3333V49.7778C23.3333 50.1904 23.4972 50.586 23.7889 50.8777C24.0807 51.1695 24.4763 51.3334 24.8889 51.3334H49.7776C50.1902 51.3334 50.5859 51.1695 50.8776 50.8777C51.1693 50.586 51.3332 50.1904 51.3332 49.7778V48.2223C51.3324 47.9504 51.2601 47.6836 51.1236 47.4485C50.987 47.2134 50.7911 47.0184 50.5554 46.8829V31.889C50.5554 31.4764 50.3915 31.0808 50.0998 30.7891C49.8081 30.4973 49.4124 30.3334 48.9999 30.3334H44.3332C43.9207 30.3334 43.525 30.4973 43.2333 30.7891C42.9416 31.0808 42.7777 31.4764 42.7777 31.889V46.6667H41.2221V35.7779C41.2221 35.3653 41.0582 34.9696 40.7665 34.6779C40.4748 34.3862 40.0791 34.2223 39.6666 34.2223H38.8888V31.7334C39.2158 31.6273 39.5134 31.4459 39.7576 31.2038L46.6735 24.2886C46.6987 24.6125 46.7911 24.9276 46.9448 25.2139C47.0985 25.5001 47.3101 25.7512 47.5662 25.9511C47.8223 26.151 48.1173 26.2954 48.4323 26.375C48.7473 26.4546 49.0754 26.4677 49.3958 26.4135C49.9477 26.3029 50.4436 26.0027 50.7975 25.5649C51.1514 25.1271 51.3409 24.5793 51.3332 24.0164V18.6668C51.3332 18.048 51.0874 17.4545 50.6498 17.0169C50.2122 16.5793 49.6187 16.3335 48.9999 16.3335ZM37.3333 11.6669V25.4817L36.6504 24.8011C36.405 24.5575 36.1062 24.3746 35.7777 24.2668V13.2224C35.7777 12.8099 35.6138 12.4142 35.3221 12.1225C35.0304 11.8308 34.6347 11.6669 34.2222 11.6669H31.1111V10.1113H35.7777C36.1903 10.1113 36.5859 10.2752 36.8776 10.5669C37.1694 10.8586 37.3333 11.2543 37.3333 11.6669ZM14 9.33354C14 9.12726 14.082 8.92943 14.2278 8.78357C14.3737 8.63771 14.5715 8.55577 14.7778 8.55577H17.7411C17.8778 8.5559 18.0121 8.52002 18.1304 8.45175C18.2488 8.38348 18.3471 8.28523 18.4155 8.16688C18.7558 7.57612 19.2457 7.08545 19.836 6.74428C20.4263 6.40311 21.096 6.22348 21.7778 6.22348C22.4595 6.22348 23.1293 6.40311 23.7196 6.74428C24.3098 7.08545 24.7998 7.57612 25.1401 8.16688C25.2084 8.28523 25.3067 8.38348 25.4251 8.45175C25.5435 8.52002 25.6778 8.5559 25.8144 8.55577H28.7777C28.984 8.55577 29.1819 8.63771 29.3277 8.78357C29.4736 8.92943 29.5555 9.12726 29.5555 9.33354V12.4446H14V9.33354ZM29.5555 14.0002C29.8274 13.9994 30.0942 13.9271 30.3293 13.7906C30.5644 13.654 30.7594 13.4581 30.8948 13.2224H34.2222V24.2668C33.8951 24.373 33.5975 24.5544 33.3534 24.7965L24.7924 33.3574C24.3597 33.7951 24.1177 34.3862 24.1194 35.0017C24.1211 35.6172 24.3663 36.207 24.8015 36.6423C25.2366 37.0775 25.8264 37.3229 26.4419 37.3247C27.0573 37.3266 27.6485 37.0847 28.0863 36.6521L34.2222 30.5217V34.4385C33.9865 34.574 33.7905 34.769 33.654 35.0041C33.5175 35.2392 33.4452 35.506 33.4444 35.7779V43.5556H31.8888V41.2223C31.8888 40.8097 31.725 40.4141 31.4332 40.1223C31.1415 39.8306 30.7458 39.6667 30.3333 39.6667H25.6666C25.2541 39.6667 24.8584 39.8306 24.5667 40.1223C24.275 40.4141 24.1111 40.8097 24.1111 41.2223V43.5556H9.33339V13.2224H12.6607C12.7962 13.4581 12.9912 13.654 13.2263 13.7906C13.4614 13.9271 13.7282 13.9994 14 14.0002H29.5555ZM31.8888 46.6667V45.1112H33.4444V46.6667H31.8888ZM30.3333 46.6667H25.6666V41.2223H30.3333V46.6667ZM7.77784 46.6667C7.36529 46.6667 6.96963 46.5028 6.67791 46.2111C6.38618 45.9194 6.2223 45.5237 6.2223 45.1112V11.6669C6.2223 11.2543 6.38618 10.8586 6.67791 10.5669C6.96963 10.2752 7.36529 10.1113 7.77784 10.1113H12.4445V11.6669H9.33339C8.92084 11.6669 8.52518 11.8308 8.23345 12.1225C7.94173 12.4142 7.77784 12.8099 7.77784 13.2224V43.5556C7.77784 43.9682 7.94173 44.3638 8.23345 44.6555C8.52518 44.9473 8.92084 45.1112 9.33339 45.1112H24.1111V46.6667H7.77784ZM49.7776 49.7778H24.8889V48.2223H49.7776V49.7778ZM44.3332 31.889H48.9999V46.6667H44.3332V31.889ZM39.6666 46.6667H34.9999V35.7779H39.6666V46.6667ZM35.7777 34.2223V30.5186L36.4606 31.1991C36.7059 31.4427 37.0047 31.6257 37.3333 31.7334V34.2223H35.7777ZM49.7776 24.0164C49.7851 24.2115 49.7256 24.4032 49.609 24.5599C49.4924 24.7165 49.3258 24.8285 49.1368 24.8774C49.0245 24.8979 48.909 24.8931 48.7988 24.8633C48.6887 24.8336 48.5865 24.7797 48.4998 24.7055C48.4132 24.6324 48.3436 24.5415 48.2957 24.4389C48.2477 24.3363 48.2226 24.2245 48.2221 24.1112V22.4157C48.2221 22.2619 48.1764 22.1116 48.091 21.9837C48.0055 21.8558 47.884 21.7561 47.7419 21.6973C47.5998 21.6384 47.4435 21.623 47.2926 21.653C47.1418 21.683 47.0032 21.7571 46.8944 21.8658L38.6555 30.1056C38.5103 30.2489 38.3142 30.3289 38.1102 30.3282C37.9062 30.3274 37.7108 30.246 37.5666 30.1017L35.5522 28.095C35.4063 27.9494 35.2087 27.8677 35.0027 27.8677C34.7966 27.8677 34.599 27.9494 34.4532 28.095L26.9889 35.5515C26.8435 35.6969 26.6464 35.7785 26.4409 35.7785C26.2354 35.7785 26.0383 35.6969 25.893 35.5515C25.7477 35.4062 25.666 35.2091 25.666 35.0036C25.666 34.7981 25.7477 34.601 25.893 34.4556L34.4555 25.8947C34.526 25.8215 34.6106 25.7633 34.7041 25.7235C34.7977 25.6837 34.8983 25.6632 34.9999 25.6632C35.1016 25.6632 35.2022 25.6837 35.2957 25.7235C35.3893 25.7633 35.4739 25.8215 35.5444 25.8947L37.5588 27.9013C37.7046 28.0469 37.9023 28.1287 38.1083 28.1287C38.3144 28.1287 38.512 28.0469 38.6578 27.9013L45.7978 20.7692C45.9053 20.6604 45.9783 20.5224 46.0078 20.3724C46.0373 20.2223 46.0219 20.0669 45.9636 19.9256C45.9052 19.7842 45.8065 19.6632 45.6798 19.5777C45.553 19.4921 45.4039 19.4459 45.251 19.4446H43.6496C43.4546 19.4519 43.263 19.3923 43.1065 19.2757C42.9501 19.1592 42.8382 18.9926 42.7893 18.8037C42.7691 18.6914 42.774 18.5761 42.8038 18.4659C42.8335 18.3558 42.8873 18.2536 42.9612 18.1667C43.0343 18.0802 43.1252 18.0106 43.2278 17.9626C43.3304 17.9147 43.4422 17.8896 43.5554 17.8891H48.9999C49.2061 17.8891 49.404 17.971 49.5498 18.1169C49.6957 18.2627 49.7776 18.4606 49.7776 18.6668V24.0164Z" fill="#7A3DE2"/>
<path d="M11.8947 21.2259C11.7489 21.3717 11.667 21.5695 11.667 21.7758C11.667 21.982 11.7489 22.1798 11.8947 22.3256L12.6725 23.1034C12.7445 23.1759 12.8302 23.2333 12.9246 23.2725C13.019 23.3116 13.1202 23.3316 13.2224 23.3313H13.2574C13.3654 23.3263 13.4712 23.2989 13.5681 23.251C13.665 23.2031 13.7509 23.1356 13.8205 23.0529L17.7094 18.3862C17.8416 18.2276 17.9054 18.0229 17.8867 17.8173C17.868 17.6116 17.7684 17.4218 17.6098 17.2895C17.4512 17.1573 17.2465 17.0935 17.0408 17.1122C16.8352 17.1309 16.6454 17.2305 16.5131 17.3891L13.1687 21.4024L12.9929 21.2266C12.8472 21.0812 12.6498 20.9995 12.444 20.9993C12.2381 20.9992 12.0406 21.0806 11.8947 21.2259Z" fill="#7A3DE2"/>
<path d="M16.5131 25.9474L13.1687 29.9607L12.9929 29.7849C12.8462 29.6433 12.6497 29.5649 12.4458 29.5666C12.2419 29.5684 12.0468 29.6502 11.9026 29.7944C11.7584 29.9386 11.6766 30.1337 11.6748 30.3376C11.6731 30.5416 11.7515 30.738 11.8931 30.8847L12.6709 31.6625C12.7431 31.7352 12.8291 31.7927 12.9237 31.8318C13.0184 31.871 13.1199 31.8909 13.2224 31.8904H13.2574C13.3653 31.8853 13.4711 31.858 13.568 31.8101C13.665 31.7622 13.7509 31.6947 13.8205 31.6119L17.7093 26.9453C17.8416 26.7867 17.9053 26.582 17.8867 26.3763C17.868 26.1707 17.7684 25.9809 17.6098 25.8486C17.4511 25.7164 17.2465 25.6526 17.0408 25.6713C16.8352 25.69 16.6453 25.7896 16.5131 25.9482V25.9474Z" fill="#7A3DE2"/>
<path d="M16.5131 34.5018L13.1687 38.5151L12.9929 38.3393C12.8462 38.1976 12.6497 38.1193 12.4458 38.121C12.2419 38.1228 12.0468 38.2046 11.9026 38.3488C11.7584 38.493 11.6766 38.6881 11.6748 38.892C11.6731 39.0959 11.7515 39.2924 11.8931 39.4391L12.6709 40.2169C12.7431 40.2895 12.8291 40.3471 12.9237 40.3862C13.0184 40.4253 13.1199 40.4452 13.2224 40.4448H13.2574C13.3653 40.4397 13.4711 40.4124 13.568 40.3645C13.665 40.3165 13.7509 40.2491 13.8205 40.1663L17.7093 35.4997C17.7748 35.4211 17.8242 35.3305 17.8546 35.2328C17.885 35.1352 17.8959 35.0326 17.8867 34.9307C17.8774 34.8289 17.8482 34.7299 17.8007 34.6393C17.7532 34.5488 17.6883 34.4685 17.6098 34.403C17.5312 34.3375 17.4406 34.2882 17.3429 34.2577C17.2453 34.2273 17.1427 34.2164 17.0408 34.2257C16.939 34.2349 16.84 34.2641 16.7494 34.3116C16.6589 34.3591 16.5786 34.4232 16.5131 34.5018Z" fill="#7A3DE2"/>
<path d="M21.7778 7.77606C21.5715 7.77606 21.3737 7.85801 21.2278 8.00387C21.0819 8.14973 21 8.34756 21 8.55384V9.33161C21 9.53789 21.0819 9.73572 21.2278 9.88158C21.3737 10.0274 21.5715 10.1094 21.7778 10.1094C21.9841 10.1094 22.1819 10.0274 22.3277 9.88158C22.4736 9.73572 22.5555 9.53789 22.5555 9.33161V8.55384C22.5555 8.34756 22.4736 8.14973 22.3277 8.00387C22.1819 7.85801 21.9841 7.77606 21.7778 7.77606Z" fill="#7A3DE2"/>
<path d="M20.9999 19.4431H31.111C31.3173 19.4431 31.5151 19.3611 31.661 19.2153C31.8068 19.0694 31.8888 18.8716 31.8888 18.6653C31.8888 18.459 31.8068 18.2612 31.661 18.1153C31.5151 17.9695 31.3173 17.8875 31.111 17.8875H20.9999C20.7937 17.8875 20.5958 17.9695 20.45 18.1153C20.3041 18.2612 20.2222 18.459 20.2222 18.6653C20.2222 18.8716 20.3041 19.0694 20.45 19.2153C20.5958 19.3611 20.7937 19.4431 20.9999 19.4431Z" fill="#7A3DE2"/>
<path d="M20.9999 22.5572H27.2221C27.4284 22.5572 27.6262 22.4753 27.7721 22.3294C27.918 22.1835 27.9999 21.9857 27.9999 21.7794C27.9999 21.5731 27.918 21.3753 27.7721 21.2295C27.6262 21.0836 27.4284 21.0016 27.2221 21.0016H20.9999C20.7937 21.0016 20.5958 21.0836 20.45 21.2295C20.3041 21.3753 20.2222 21.5731 20.2222 21.7794C20.2222 21.9857 20.3041 22.1835 20.45 22.3294C20.5958 22.4753 20.7937 22.5572 20.9999 22.5572Z" fill="#7A3DE2"/>
<path d="M20.9999 28.0022H27.2221C27.4284 28.0022 27.6262 27.9203 27.7721 27.7744C27.918 27.6285 27.9999 27.4307 27.9999 27.2244C27.9999 27.0182 27.918 26.8203 27.7721 26.6745C27.6262 26.5286 27.4284 26.4467 27.2221 26.4467H20.9999C20.7937 26.4467 20.5958 26.5286 20.45 26.6745C20.3041 26.8203 20.2222 27.0182 20.2222 27.2244C20.2222 27.4307 20.3041 27.6285 20.45 27.7744C20.5958 27.9203 20.7937 28.0022 20.9999 28.0022Z" fill="#7A3DE2"/>
<path d="M20.9999 31.1116H23.3333C23.5395 31.1116 23.7374 31.0296 23.8832 30.8838C24.0291 30.7379 24.111 30.5401 24.111 30.3338C24.111 30.1275 24.0291 29.9297 23.8832 29.7838C23.7374 29.638 23.5395 29.556 23.3333 29.556H20.9999C20.7937 29.556 20.5958 29.638 20.45 29.7838C20.3041 29.9297 20.2222 30.1275 20.2222 30.3338C20.2222 30.5401 20.3041 30.7379 20.45 30.8838C20.5958 31.0296 20.7937 31.1116 20.9999 31.1116Z" fill="#7A3DE2"/>
</svg>
