<svg width="56" height="56" viewBox="0 0 56 56" fill="none" xmlns="http://www.w3.org/2000/svg">
<path d="M18.7381 22.0054C18.3459 21.8066 17.8845 22.0004 17.7068 22.4357L14.0649 31.3443C13.8873 31.7792 14.0607 32.2918 14.4525 32.4889C14.8351 32.6851 15.3057 32.4982 15.4838 32.0587L19.1257 23.1501C19.3034 22.7152 19.1299 22.2026 18.7381 22.0054Z" fill="#7A3DE2"/>
<path d="M21.3004 26.0923C17.7485 24.621 16.577 30.7777 20.3372 31.0487C22.8165 31.0569 23.5654 27.2186 21.3004 26.0923ZM20.6088 29.264C19.6441 29.6467 19.1084 28.0616 20.0603 27.6452C21.0235 27.2615 21.5611 28.8453 20.6088 29.264Z" fill="#7A3DE2"/>
<path d="M14.9846 27.1021C15.8748 25.0888 13.9112 22.7432 12.0342 23.602C10.828 24.1052 10.2152 25.6037 10.6686 26.9425C11.3374 29.0767 14.1899 29.1808 14.9846 27.1021ZM13.5657 26.3873C13.1422 27.4153 11.7287 26.7034 12.1469 25.6728C12.5683 24.6476 13.9825 25.3521 13.5657 26.3873Z" fill="#7A3DE2"/>
<path d="M25.9876 27.9455L23.2472 19.8513C22.6427 18.0662 20.8431 17.1605 19.234 17.8297L9.02454 22.0881C7.44451 22.7055 6.58154 24.8156 7.20325 26.5421C7.2032 26.5421 9.94358 34.6363 9.94358 34.6363C10.5484 36.4214 12.3484 37.3279 13.9568 36.6578L17.1525 35.3249L19.3542 37.5909C19.5709 37.8145 19.8841 37.8808 20.1576 37.7661C20.4342 37.6509 20.6278 37.3726 20.6586 37.0467L20.9709 33.7323L24.1662 32.3994C25.7465 31.7822 26.6091 29.6718 25.9876 27.9455ZM24.4892 29.8763C24.3173 30.2972 24.008 30.6181 23.6185 30.7806L19.9724 32.3014C19.6958 32.4167 19.5022 32.6949 19.4714 33.0209L19.2709 35.1471L17.8585 33.6935C17.642 33.471 17.3301 33.4026 17.0551 33.5183L13.409 35.0391C12.6045 35.3735 11.7048 34.9208 11.402 34.0283L8.66164 25.9341C8.35138 25.0709 8.78227 24.0156 9.57236 23.7069C9.57231 23.7069 19.7818 19.4485 19.7818 19.4485C20.5871 19.1158 21.4863 19.5667 21.7888 20.4593L24.5291 28.5535C24.6756 28.9858 24.6611 29.4557 24.4892 29.8763Z" fill="#7A3DE2"/>
<path d="M8.56195 40.0901H20.7229C21.1531 40.0901 21.5019 39.703 21.5019 39.2255C21.5019 38.7479 21.1531 38.3608 20.7229 38.3608H8.56195C7.27316 38.3608 6.22479 37.1972 6.22479 35.7667V16.7435H43.6193V18.9399C43.6355 20.0736 45.1602 20.0784 45.1774 18.9398C45.1774 18.9399 45.1774 11.5554 45.1774 11.5554C45.1774 9.17158 43.4299 7.23194 41.2822 7.23194H35.0497C34.9686 3.81039 30.4556 3.81282 30.3754 7.23194H27.2592C27.1781 3.81039 22.6651 3.81282 22.5849 7.23194H19.4687C19.3876 3.81039 14.8745 3.81282 14.7944 7.23194H8.56195C6.41423 7.23194 4.66669 9.17158 4.66669 11.5554V35.7667C4.66669 38.1505 6.41423 40.0901 8.56195 40.0901ZM32.7126 6.36725C33.1421 6.36725 33.4916 6.75526 33.4916 7.23194H31.9335C31.9335 6.75526 32.2831 6.36725 32.7126 6.36725ZM24.9221 6.36725C25.3515 6.36725 25.7011 6.75526 25.7011 7.23194H24.143C24.143 6.75526 24.4926 6.36725 24.9221 6.36725ZM17.1315 6.36725C17.561 6.36725 17.9106 6.75526 17.9106 7.23194H16.3525C16.3525 6.75526 16.7021 6.36725 17.1315 6.36725ZM6.22479 11.5554C6.22479 10.1249 7.27316 8.96132 8.56195 8.96132H17.9106V10.6907C17.9106 11.1674 17.561 11.5554 17.1315 11.5554C16.7021 11.5554 16.3525 11.1674 16.3525 10.6907C16.3525 10.2132 16.0037 9.82601 15.5734 9.82601C15.1432 9.82601 14.7944 10.2132 14.7944 10.6907C14.7944 12.1212 15.8427 13.2848 17.1315 13.2848C18.4203 13.2848 19.4687 12.1212 19.4687 10.6907V8.96132H25.7011V10.6907C25.7011 11.1674 25.3515 11.5554 24.9221 11.5554C24.4926 11.5554 24.143 11.1674 24.143 10.6907C24.143 10.2132 23.7942 9.82601 23.364 9.82601C22.9337 9.82601 22.5849 10.2132 22.5849 10.6907C22.5849 12.1212 23.6333 13.2848 24.9221 13.2848C26.2108 13.2848 27.2592 12.1212 27.2592 10.6907V8.96132H33.4916V10.6907C33.4916 11.1674 33.1421 11.5554 32.7126 11.5554C32.2831 11.5554 31.9335 11.1674 31.9335 10.6907C31.9335 10.2132 31.5847 9.82601 31.1545 9.82601C30.7242 9.82601 30.3754 10.2132 30.3754 10.6907C30.3754 12.1212 31.4238 13.2848 32.7126 13.2848C34.0014 13.2848 35.0497 12.1212 35.0497 10.6907V8.96132H41.2822C42.571 8.96132 43.6193 10.1249 43.6193 11.5554V15.0141H6.22479V11.5554Z" fill="#7A3DE2"/>
<path d="M25.827 23.6502C25.134 24.4826 26.2605 25.6536 26.9621 24.8349C35.0767 15.1694 49.8758 21.6922 49.8516 34.9044C49.1244 54.4051 24.0889 54.4003 23.3639 34.9042C23.3506 33.7684 21.8204 33.7687 21.8058 34.9043C21.8058 43.9632 28.446 51.3334 36.6078 51.3334C56.2434 50.4314 56.2403 19.3752 36.6078 18.4752C32.5413 18.4752 28.6118 20.3616 25.827 23.6502Z" fill="#7A3DE2"/>
<path d="M30.6999 37.4654C30.3743 37.5271 30.1194 37.81 30.0639 38.1714L29.6074 41.1235C29.5042 41.6908 29.9974 42.2356 30.5067 42.122C30.5067 42.122 33.1664 41.6158 33.1664 41.6158C33.492 41.5537 33.7469 41.2708 33.8028 40.9094L34.217 38.2284L35.2876 37.0399C38.2672 39.0747 40.6173 33.9304 37.3865 32.4675V30.5565L38.8016 28.3355C38.9922 28.0366 38.9922 27.6364 38.8016 27.3374L37.2435 24.8916C36.9514 24.433 36.2636 24.433 35.9715 24.8916L34.4134 27.3374C34.2228 27.6363 34.2228 28.0366 34.4134 28.3355L35.8284 30.5565V32.4675C34.7166 32.8781 33.9914 34.3208 34.3706 35.6122L33.1157 37.0053L30.6999 37.4654ZM32.36 40.0143L31.3291 40.2107L31.5064 39.0665L32.5373 38.8697L32.36 40.0143ZM36.6075 26.8882L37.2116 27.8365L36.6075 28.7843L36.0034 27.8365L36.6075 26.8882ZM36.6075 34.0375C38.0576 34.1902 37.2161 36.5451 36.069 35.5223C36.0317 35.2994 35.8164 35.1412 35.8284 34.9022C35.8284 34.4255 36.178 34.0375 36.6075 34.0375Z" fill="#7A3DE2"/>
<path d="M37.3867 22.7983C38.4102 22.7791 38.4109 21.0882 37.3867 21.069H35.8286C34.8051 21.0881 34.8043 22.7791 35.8286 22.7983H37.3867Z" fill="#7A3DE2"/>
<path d="M37.3867 47.0111H35.8286C34.8051 47.0303 34.8043 48.7212 35.8286 48.7405H37.3867C38.4102 48.7213 38.4109 47.0303 37.3867 47.0111Z" fill="#7A3DE2"/>
<path d="M49.0728 35.7692V34.0398C49.0554 32.9036 47.532 32.9031 47.5146 34.0398V35.7692C47.532 36.9052 49.0554 36.906 49.0728 35.7692Z" fill="#7A3DE2"/>
<path d="M24.1431 34.0398V35.7691C24.1605 36.9054 25.6839 36.9058 25.7012 35.7691V34.0398C25.684 32.9037 24.1605 32.903 24.1431 34.0398Z" fill="#7A3DE2"/>
</svg>
